<?xml version="1.0" encoding="utf-8"?>
<!-- Generator: Adobe Illustrator 27.1.1, SVG Export Plug-In . SVG Version: 6.00 Build 0)  -->
<svg version="1.1" id="Ebene_1" xmlns="http://www.w3.org/2000/svg" xmlns:xlink="http://www.w3.org/1999/xlink" x="0px" y="0px"
	 viewBox="0 0 159.16 308.12" style="enable-background:new 0 0 159.16 308.12;" xml:space="preserve">
<style type="text/css">
	.st0{fill:#FFFFFF;}
</style>
<path class="st0" d="M158.85,51.05c-9,0.03-18.02-0.22-27,0.22c-4.53,0.22-9.11,0.44-13.66,1.54c-7.68,1.84-12.18,6.53-13.86,13.9
	c-0.75,3.3-2.14,6.75-0.82,10.29c-0.51,5.67-0.13,11.35-0.21,17.03c-0.07,5.39-0.04,10.78,0.01,16.17c0.01,0.89-0.56,2.04,0.7,2.63
	c16.58,0.03,33.17,0,49.75,0.03c1.07,0,2.2-0.34,3.21,0.33c0.18,4.14-0.96,8.15-1.27,12.25c-0.31,4.07-1.02,8.12-1.66,12.16
	c-1.12,7.02-1.53,14.13-2.89,21.12c-0.54,2.78-0.53,5.67-0.76,8.51c-1,0.69-2.13,0.34-3.19,0.34c-14.43,0.05-28.87-0.03-43.3,0.06
	c-1.16,0.95-0.57,2.24-0.57,3.35c-0.04,44.53-0.03,89.06-0.05,133.59c0,1.18,0.29,2.41-0.28,3.55c-18.62,0-37.24,0-55.86,0
	c-0.57-1.14-0.28-2.37-0.28-3.55c-0.02-44.38-0.01-88.75-0.03-133.13c0-1.18,0.31-2.4-0.3-3.54l0.02-0.03
	c-1.04-0.54-2.16-0.27-3.24-0.27c-13.28-0.02-26.56-0.01-39.84-0.03c-1.08,0-2.2,0.23-3.25-0.23c-0.23-0.46-0.22-0.96-0.22-1.46
	c0-17.18,0-34.36,0-51.54c0-0.4,0.04-0.8,0.16-1.18c1.03-0.59,2.16-0.3,3.23-0.3c13.31-0.02,26.61-0.01,39.92-0.03
	c1.08,0,2.2,0.26,3.25-0.27l-0.04-0.05c0.62-1.02,0.31-2.15,0.31-3.22c0.03-11.48,0.01-22.97,0.03-34.45c0-1.09-0.19-2.2,0.2-3.27
	c-1.26-3.71,0.09-7.41,0.34-11.05c0.41-5.96,1.99-11.79,3.9-17.52c2.43-7.26,6.01-13.82,10.77-19.78
	C67.28,16.71,73.82,11.78,81.12,8c5.9-3.05,12.28-5.05,18.87-6.18c2.97-0.51,5.97-0.88,8.96-1.32c0.23-0.14,0.48-0.19,0.74-0.19
	c0.39,0,0.78,0,1.17,0c0.38,0,0.77,0,1.15,0c0.61-0.08,1.28,0.21,1.81-0.31c2,0,4,0,6.01,0c1.4,0.5,2.8,0.5,4.2,0c1.2,0,2.4,0,3.6,0
	c0.75,0.59,1.62,0.19,2.43,0.31c0.69,0,1.38,0,2.07,0c0.4,0,0.81,0,1.21,0c0.51-0.04,1.07,0.14,1.49-0.31c0.8,0,1.6,0,2.4,0
	c1.07,0.88,2.47,1.13,3.68,1.14c6.02,0.02,11.98,0.69,17.94,1.37c0.45,0.63,0.29,1.35,0.29,2.04c0.01,14.82,0.01,29.64,0,44.47
	C159.14,49.7,159.29,50.42,158.85,51.05z"/>
</svg>
