<?xml version="1.0" encoding="utf-8"?>
<!-- Generator: Adobe Illustrator 27.1.1, SVG Export Plug-In . SVG Version: 6.00 Build 0)  -->
<svg version="1.1" id="Ebene_1" xmlns="http://www.w3.org/2000/svg" xmlns:xlink="http://www.w3.org/1999/xlink" x="0px" y="0px"
	 viewBox="0 0 328.76 328.72" style="enable-background:new 0 0 328.76 328.72;" xml:space="preserve">
<style type="text/css">
	.st0{fill:#FFFFFF;}
</style>
<g>
	<path class="st0" d="M328.76,79.53c-0.57-0.6-0.24-1.35-0.33-2.03c0-0.44,0-0.88,0-1.31c0-0.45,0-0.91,0-1.36c0-0.47,0-0.94,0-1.41
		c-0.17-1.8-0.18-3.63-0.48-5.4C325,50.37,317,35.19,304.2,22.88C290.67,9.86,274.54,1.81,255.51,0.33c-0.31,0-0.63,0-0.94,0
		c-0.45,0-0.9,0-1.35,0c-0.43,0-0.86,0-1.28,0c-0.41,0-0.82,0-1.23,0c-0.51-0.03-1.06,0.11-1.48-0.33C192.79,0,136.34,0,79.9,0
		c-0.44,0.47-1.01,0.29-1.53,0.33c-0.42,0-0.85,0-1.28,0c-0.45,0-0.91,0-1.36,0c-0.48,0-0.97,0-1.46,0c-0.34,0-0.69,0-1.03,0
		c-3.28,0.33-6.58,0.45-9.83,1.21C41.18,6.76,24.11,19.3,11.82,38.36C3.94,50.57-0.03,63.96,0,78.65
		c0.14,57.93,0.05,115.86,0.07,173.78c0,4.38,0.34,8.75,1.4,13.02c5.61,22.75,18.78,39.98,38.52,52.27
		c10.89,6.78,22.76,10.93,35.7,10.95c59,0.08,117.99,0.05,176.99,0.01c4.26,0,8.52-0.4,12.69-1.43
		c18.61-4.59,33.9-14.41,45.84-29.36c8.69-10.88,14.42-23.16,16.7-36.99c0.27-1.66-0.25-3.47,0.85-4.98c0-0.43,0-0.86,0-1.28
		c-0.45-0.41-0.3-0.96-0.33-1.47c0-0.4,0-0.79,0-1.19c0-0.4,0-0.8,0-1.2c0.08-0.64-0.22-1.35,0.33-1.91
		C328.76,192.42,328.76,135.98,328.76,79.53z M301.28,246.97c-0.8,13.43-4.98,25.44-14.15,35.63c-8.47,9.42-18.68,15.37-31.15,17.66
		c-2.87,0.53-5.8,0.28-8.6,1.13c-1.02-0.47-2.11-0.25-3.16-0.25c-53.32-0.01-106.64-0.01-159.95,0c-1.05,0-2.14-0.22-3.16,0.25
		c-13.59-1-25.76-5.2-35.85-14.89c-6.75-6.49-11.95-13.81-14.85-22.69c-1.78-5.45-3.13-11.01-2.55-16.83
		c-0.39-1.04-0.21-2.12-0.21-3.17c-0.01-53.07-0.01-106.13,0-159.2c0-1.06-0.18-2.14,0.21-3.17c-0.76-3.73,0.04-7.46,0.86-10.96
		c3.98-17.08,14.06-29.61,29.64-37.54c7.1-3.61,14.87-5,22.79-5.43c1.04-0.39,2.12-0.21,3.17-0.21c53.28-0.01,106.57-0.01,159.85,0
		c1.06,0,2.14-0.18,3.17,0.21c30.34,1.24,52.65,23.8,53.94,53.94c0.39,1.04,0.21,2.12,0.21,3.17c0.01,53.07,0.01,106.13,0,159.2
		C301.48,244.85,301.67,245.93,301.28,246.97z"/>
	<path class="st0" d="M253.06,55.16c11.17-0.58,21.37,9.15,20.54,21.21c-0.83,12.03-9.92,19.79-20.6,19.59
		c-11.86-0.22-20.03-8.66-20.24-20.56C232.57,64.91,240.07,55.21,253.06,55.16z"/>
	<path class="st0" d="M222.01,105.9c-16.21-16-36.16-23.7-58.57-23.6c-22.1,0.11-41.66,8.22-57.33,24.07
		c-15.74,15.93-23.81,35.28-23.72,61.32c-1.05,40.47,37.43,80.94,85.24,78.63c22.79-1.1,41.82-10.16,57.19-26.74
		c14.44-15.57,21.71-34.48,21.6-55.5C246.3,141.65,238.2,121.88,222.01,105.9z M163.75,219.14c-30.21-0.27-54.08-23.95-54.17-54.93
		c-0.09-30.42,23.7-54.22,54.66-54.53c31.16,0.36,54.12,24.14,54.71,53C219.63,195.22,194.36,219.41,163.75,219.14z"/>
</g>
</svg>
