<?xml version="1.0" encoding="utf-8"?>
<!-- Generator: Adobe Illustrator 27.1.1, SVG Export Plug-In . SVG Version: 6.00 Build 0)  -->
<svg version="1.1" id="Ebene_1" xmlns="http://www.w3.org/2000/svg" xmlns:xlink="http://www.w3.org/1999/xlink" x="0px" y="0px"
	 viewBox="0 0 383.58 383.54" style="enable-background:new 0 0 383.58 383.54;" xml:space="preserve">
<style type="text/css">
	.st0{fill:#FFFFFF;}
</style>
<path class="st0" d="M383.14,48.1c-0.06-7.31-1.92-14.06-5.47-20.34C367.02,8.89,350.84-0.03,329.14,0
	c-92.25,0.14-184.5,0.03-276.75,0.12c-6.44,0.01-12.98,0.11-19.12,2.69C14.59,10.68,2.29,23.64,0,44.57c0,0.5,0,1,0,1.5
	c0.2,0.15,0.32,0.35,0.36,0.59c0.02,0.23,0.03,0.47,0.02,0.71c0.02,0.38-0.11,0.69-0.39,0.95c0,95.78,0,191.56,0,287.34
	c0.34,0.3,0.38,0.7,0.38,1.12c0.01,0.42-0.05,0.82-0.38,1.12c0,0.5,0,1,0,1.5c0.5,6.14,2.05,11.99,5.18,17.31
	c8.82,14.97,21.14,24.91,38.96,26.84c0.5,0,1,0,1.5,0c0.3-0.33,0.7-0.39,1.12-0.38c0.42,0,0.82,0.04,1.12,0.38
	c95.78,0,191.56,0,287.33,0c0.44-0.46,1.01-0.38,1.55-0.38c0.38,0,0.77,0,1.15,0c0.4,0,0.82,0,1.22,0
	c8.36,0.01,15.51-3.4,22.04-8.18c15.66-11.47,22.48-26.99,22.39-46.41C383.12,235.08,383.93,141.59,383.14,48.1z M130.28,304.29
	c-0.99,5.01-3.83,7.41-8.8,7.41c-11.19,0-22.38,0-33.57-0.01c-4.68,0-7.53-2.69-7.95-7.48c-0.44-1.08-0.25-2.22-0.25-3.32
	c-0.01-46.17-0.01-92.34,0-138.51c0-1.11-0.18-2.24,0.23-3.33c0.01-4.55,2.67-6.72,6.79-7.58c12.01-0.45,24.03-0.44,36.04-0.01
	c4.94,0.97,6.57,2.6,7.51,7.51c0.47,1.08,0.26,2.21,0.26,3.32c0.01,46.22,0.01,92.45,0,138.67
	C130.55,302.08,130.76,303.22,130.28,304.29z M111.28,137.21c-18.8,4.11-35.44-9.74-38.67-27.18c-0.15-0.83,0.06-1.73,0.1-2.6
	c0.41-1.75,0.41-3.5,0-5.25c0.45-10.69,5.66-18.91,14.39-24.39c17.32-10.89,41.35-4.79,48.76,16.51
	C142.69,113.91,130.65,132.97,111.28,137.21z M309.82,305.05c-0.16,3.46-2.2,5.4-5.27,6.52c-13.22-0.41-26.45-0.43-39.67,0.01
	c-3.58-0.75-5.94-2.62-6.09-6.56c-0.47-1.33-0.24-2.71-0.24-4.07c-0.02-21.89-0.01-43.77-0.01-65.65c-0.17-2.49,0.36-5.02-0.31-7.49
	c0.07-7.85-0.96-15.43-4.37-22.67c-3.77-7.98-10.37-11.49-18.59-12.36c-9.01-0.95-16.91,1.5-22.96,8.71
	c-4.75,5.66-6.8,12.4-7.92,19.47c-0.21,1.3-0.92,2.5-0.75,3.86c0.38,0.83,0.26,1.71,0.26,2.58c0.01,25.02,0.01,50.04,0,75.05
	c0,0.86,0.13,1.75-0.27,2.57c-2.21,6.01-3.12,6.67-9.19,6.67c-11.22,0-22.44,0.01-33.65-0.02c-4.58-0.01-7.35-2.7-7.35-7.22
	c-0.02-48.86-0.01-97.72-0.02-146.58c0-3.99,2.89-5.26,5.93-6.41c12.75-0.43,25.51-0.43,38.26,0.01c3.42,0.99,5.72,2.98,6.01,6.75
	c0.63,3.17,0.1,6.38,0.31,9.56c0.05,0.66-0.6,1.95,1.05,1.66c8.44-11.94,20.15-17.86,34.53-19.45c11.56-1.28,22.95-1.22,34.09,2.36
	c15.26,4.9,24.93,15.51,30.22,30.41c3.02,8.48,4.65,17.17,5.39,26.16c0.36,4.31,0.33,8.6,0.63,12.89c0.65,1.75,0.16,3.56,0.31,5.34
	c0,1.61,0,3.21,0,4.82c0,6.88,0,13.76,0,20.64c0,7.73,0,15.46,0,23.19c0,8.53,0.01,17.06-0.01,25.59
	C310.13,302.62,310.41,303.88,309.82,305.05z"/>
</svg>
