<?xml version="1.0" encoding="UTF-8"?><svg id="Favicon" xmlns="http://www.w3.org/2000/svg" viewBox="0 0 1057.33 957"><defs><style>.cls-1{fill:#ffefcd;}.cls-2{fill:#e09123;}.cls-3{fill:#231f20;}</style></defs><path class="cls-3" d="M276.72,0H942.72c49.67,0,90,40.33,90,90V707c0,137.98-112.02,250-250,250H116.72c-49.67,0-90-40.33-90-90V250C26.72,112.02,138.74,0,276.72,0Z"/><polygon class="cls-1" points="76.22 245.95 296.65 733.3 359.81 597.46 315.72 498.56 297.85 536.69 164.79 245.95 76.22 245.95"/><polygon class="cls-2" points="228.69 245.95 317.68 245.95 449.17 539.07 580.1 245.95 625.74 245.95 668.42 342.47 624.33 440.18 600.64 392.51 448.55 733.3 228.69 245.95"/><polygon class="cls-1" points="387.21 341.28 431.3 440.18 453.46 390.73 607.48 733.3 826.55 245.95 738.69 245.95 606.46 536.69 473.99 245.95 430.64 245.95 387.21 341.28"/><polygon class="cls-2" points="738.72 499.75 757.78 540.27 893.86 245.95 981.72 245.95 759.23 733.3 695.82 597.46 738.72 499.75"/></svg>