<?xml version="1.0" encoding="UTF-8"?><svg id="ohne_Schrift" xmlns="http://www.w3.org/2000/svg" viewBox="0 0 1057.33 798.41"><defs><style>.cls-1{fill:#ffefcd;}.cls-2{fill:#e09123;}</style></defs><polygon class="cls-1" points=".61 104.63 257.86 673.36 331.56 514.84 280.11 399.43 259.25 443.92 103.98 104.63 .61 104.63"/><polygon class="cls-2" points="178.54 104.63 282.4 104.63 435.85 446.71 588.64 104.63 641.9 104.63 691.71 217.27 640.26 331.29 612.61 275.67 435.12 673.36 178.54 104.63"/><polygon class="cls-1" points="363.54 215.88 414.99 331.29 440.84 273.58 620.6 673.36 876.24 104.63 773.72 104.63 619.4 443.92 464.81 104.63 414.22 104.63 363.54 215.88"/><polygon class="cls-2" points="773.75 400.82 796 448.1 954.8 104.63 1057.33 104.63 797.69 673.36 723.69 514.84 773.75 400.82"/></svg>