<?xml version="1.0" encoding="utf-8"?>
<!-- Generator: Adobe Illustrator 27.1.1, SVG Export Plug-In . SVG Version: 6.00 Build 0)  -->
<svg version="1.1" id="Ebene_1" xmlns="http://www.w3.org/2000/svg" xmlns:xlink="http://www.w3.org/1999/xlink" x="0px" y="0px"
	 viewBox="0 0 1056.72 715.18" style="enable-background:new 0 0 1056.72 715.18;" xml:space="preserve">
<style type="text/css">
	.st0{fill:#B07E09;enable-background:new    ;}
	.st1{fill:#D7BE84;enable-background:new    ;}
	.st2{fill:#FFFFFF;}
	.st3{display:none;}
	.st4{display:inline;fill:#FFEFCD;}
	.st5{display:inline;fill:#E09123;}
</style>
<polygon class="st0" points="0,0 257.25,568.73 330.95,410.21 279.5,294.79 258.64,339.29 103.37,0 "/>
<polygon class="st1" points="526.91,361.71 434.52,568.73 177.93,0 281.79,0 435.24,342.07 476.52,249.65 "/>
<polygon class="st1" points="691.1,112.63 639.65,226.65 612,171.03 577.43,248.5 526.73,137.23 588.03,0 641.29,0 "/>
<polygon class="st0" points="875.64,0 619.99,568.73 526.91,361.71 476.52,249.65 440.24,168.95 414.38,226.65 362.93,111.24 
	413.61,0 464.21,0 526.73,137.23 577.43,248.5 618.79,339.29 773.11,0 "/>
<polygon class="st1" points="773.14,296.18 795.39,343.46 954.19,0 1056.72,0 797.08,568.73 723.08,410.21 "/>
<g>
	<path class="st2" d="M274.09,621.68l12,66l18.88-66h14.12l17.13,65.5l13.38-65.5h15.75l-20.88,92h-15.12l-17.63-70l-19.5,70h-14.88
		l-19.63-92H274.09z"/>
	<path class="st2" d="M423.84,680.55c0,20-8,34.38-29.5,34.38c-21.38,0-29.25-14.38-29.25-34.38c0-20.37,8-34,29.25-34
		C415.84,646.55,423.84,660.43,423.84,680.55z M379.22,680.68c0,13.75,4,21,15.25,21s15.38-7.25,15.38-21s-4.12-20.88-15.38-20.88
		C383.22,659.8,379.22,666.8,379.22,680.68z"/>
	<path class="st2" d="M450.59,647.55v9.13c3.63-5.38,10.25-10.13,18.38-10.13c2.5,0,5.75,0.5,7,1.13v14.12c-1.75-1.13-4.37-2-7.75-2
		c-7.88,0-13.38,4.87-16.63,9.75v44.13h-14.63v-66.13H450.59z"/>
	<path class="st2" d="M501.09,617.55v53.75h3.75l19.75-23.75h15.5l-23.5,28.88l24.13,37.25h-16l-19.88-30.38h-3.75v30.38h-14.5
		v-96.13H501.09z"/>
	<path class="st2" d="M560.47,621.68l12,66l18.88-66h14.12l17.13,65.5l13.38-65.5h15.75l-20.88,92h-15.13l-17.63-70l-19.5,70h-14.87
		l-19.62-92H560.47z"/>
	<path class="st2" d="M677.59,627.55c0,5.25-3.63,9.12-8.63,9.12s-8.63-3.87-8.63-9.12c0-4.87,3.62-8.88,8.63-8.88
		C673.97,618.68,677.59,622.68,677.59,627.55z M676.22,647.55v66.13H661.6v-66.13H676.22z"/>
	<path class="st2" d="M728.72,661.93c-4.62-1.88-11.12-3.12-16.5-3.12c-6.88,0-10,2.12-10,6.12c0,2.75,1.75,4.5,4.87,6.25
		c6.63,3.75,13.75,5.88,18.62,9.25c5.63,3.87,7.75,9,7.75,15c0,11.88-8.5,19.75-26.25,19.75c-7.87,0-15.75-1.5-20.88-3.13l1.5-13.5
		c5,2.25,12.62,4,19.5,4c8.63,0,12.37-2.62,12.37-7c0-2.88-1.88-5.12-5.5-7.25c-7.25-4.13-13.87-5.88-19.25-9.5
		c-4.5-3.38-7.38-7-7.38-13.63c0-11.88,9-18.5,24.12-18.5c6.88,0,14.25,1.37,18.38,3L728.72,661.93z"/>
	<path class="st2" d="M755.59,684.55c1,9.88,5.25,17.37,18.13,17.37c5.38,0,11.88-1.37,15.63-3.62l4.62,12.13
		c-5,2.5-13.13,4.5-21.25,4.5c-23.75,0-30.5-16.75-30.5-34.5c0-17.37,6.38-33.88,28-33.88c19.88,0,26.5,13.25,26.5,30.5
		c0,2.5-0.13,4.87-0.37,7.5H755.59z M755.72,674.8h28.5c-0.88-11.75-5.5-16.38-13.75-16.38
		C761.09,658.43,756.72,664.43,755.72,674.8z"/>
</g>
<g id="ohne_Schrift" class="st3">
	<polygon class="st4" points="0.61,104.63 257.86,673.36 331.56,514.84 280.11,399.43 259.25,443.92 103.98,104.63 	"/>
	<polygon class="st5" points="178.54,104.63 282.4,104.63 435.85,446.71 588.64,104.63 641.9,104.63 691.71,217.27 640.26,331.29 
		612.61,275.67 435.12,673.36 	"/>
	<polygon class="st4" points="363.54,215.88 414.99,331.29 440.84,273.58 620.6,673.36 876.24,104.63 773.72,104.63 619.4,443.92 
		464.81,104.63 414.22,104.63 	"/>
	<polygon class="st5" points="773.75,400.82 796,448.1 954.8,104.63 1057.33,104.63 797.69,673.36 723.69,514.84 	"/>
</g>
</svg>
