<?xml version="1.0" encoding="UTF-8"?><svg id="Layer_1" xmlns="http://www.w3.org/2000/svg" viewBox="0 0 1056.72 798.41"><defs><style>.cls-1{fill:#ffefcd;}.cls-2{fill:#e09123;}.cls-3{fill:#424530;font-family:PoiretOne-Regular, 'Poiret One';font-size:139.05px;}.cls-4{letter-spacing:-.12em;}</style></defs><polygon class="cls-1" points="0 0 257.25 568.73 330.95 410.21 279.5 294.79 258.64 339.29 103.37 0 0 0"/><polygon class="cls-2" points="177.93 0 281.79 0 435.24 342.07 588.03 0 641.29 0 691.1 112.63 639.65 226.66 612 171.04 434.51 568.73 177.93 0"/><polygon class="cls-1" points="362.93 111.24 414.38 226.66 440.24 168.95 619.99 568.73 875.63 0 773.11 0 618.79 339.29 464.2 0 413.61 0 362.93 111.24"/><polygon class="cls-2" points="773.14 296.18 795.39 343.46 954.19 0 1056.72 0 797.08 568.73 723.08 410.21 773.14 296.18"/><text class="cls-3" transform="translate(232.9 769.49)"><tspan class="cls-4" x="0" y="0">W</tspan><tspan x="125.84" y="0">orkWise</tspan></text></svg>