<?xml version="1.0" encoding="utf-8"?>
<!-- Generator: Adobe Illustrator 27.1.1, SVG Export Plug-In . SVG Version: 6.00 Build 0)  -->
<svg version="1.1" id="Ebene_1" xmlns="http://www.w3.org/2000/svg" xmlns:xlink="http://www.w3.org/1999/xlink" x="0px" y="0px"
	 viewBox="0 0 1056.72 568.73" style="enable-background:new 0 0 1056.72 568.73;" xml:space="preserve">
<style type="text/css">
	.st0{fill:#B07E09;}
	.st1{fill:#D7BE84;}
	.st2{display:none;}
	.st3{display:inline;fill:#FFEFCD;}
	.st4{display:inline;fill:#E09123;}
</style>
<polygon class="st0" points="0,0 257.25,568.73 330.95,410.21 279.5,294.79 258.64,339.29 103.37,0 "/>
<polygon class="st1" points="526.91,361.71 434.52,568.73 177.93,0 281.79,0 435.24,342.07 476.52,249.65 "/>
<polygon class="st1" points="691.1,112.63 639.65,226.65 612,171.03 577.43,248.5 526.73,137.23 588.03,0 641.29,0 "/>
<polygon class="st0" points="875.64,0 619.99,568.73 526.91,361.71 476.52,249.65 440.24,168.95 414.38,226.65 362.93,111.24 
	413.61,0 464.21,0 526.73,137.23 577.43,248.5 618.79,339.29 773.11,0 "/>
<polygon class="st1" points="773.14,296.18 795.39,343.46 954.19,0 1056.72,0 797.08,568.73 723.08,410.21 "/>
<g id="ohne_Schrift" class="st2">
	<polygon class="st3" points="0.61,104.63 257.86,673.36 331.56,514.84 280.11,399.43 259.25,443.92 103.98,104.63 	"/>
	<polygon class="st4" points="178.54,104.63 282.4,104.63 435.85,446.71 588.64,104.63 641.9,104.63 691.71,217.27 640.26,331.29 
		612.61,275.67 435.12,673.36 	"/>
	<polygon class="st3" points="363.54,215.88 414.99,331.29 440.84,273.58 620.6,673.36 876.24,104.63 773.72,104.63 619.4,443.92 
		464.81,104.63 414.22,104.63 	"/>
	<polygon class="st4" points="773.75,400.82 796,448.1 954.8,104.63 1057.33,104.63 797.69,673.36 723.69,514.84 	"/>
</g>
</svg>
